<?xml version="1.0" encoding="utf-8"?>
<svg version="1.1" xmlns="http://www.w3.org/2000/svg" xmlns:xlink="http://www.w3.org/1999/xlink" x="0px" y="0px"
	 viewBox="0 0 1030 300" style="enable-background:new 0 0 1030 300;" xml:space="preserve">
<style type="text/css">
	.st0{fill:#00AFD7;}
</style>
<g>
	<g id="Group_30">
		<path id="Path_90" class="st0" d="M211.43,132.69c-9.86,0.03-17.83,8.04-17.8,17.9s8.04,17.83,17.9,17.8
			c9.84-0.03,17.8-8.01,17.8-17.85l0,0C229.31,140.67,221.3,132.68,211.43,132.69z"/>
		<path id="Path_91" class="st0" d="M399.53,76.89c-8.95-23.21-36.9-37.13-78.8-39.34l12.41,12.34
			c29.56,3.75,49.62,14.74,55.89,31.01l0,0c7.22,18.75-3.76,44.63-30.5,70.88l0,0c0.66-38.13-13.51-75.03-39.54-102.9
			c-0.83-0.86-1.61-1.72-2.48-2.59l0,0l-8.84-8.81l-13.13-13.09c-3.87-3.85-10.12-3.85-13.99,0l0,0l-16.81,16.76l-1.96,1.95
			l-2.67-1.2c-2.9-1.31-5.86-2.48-8.87-3.53V11.86c0.01-5.44-4.38-9.85-9.82-9.86c0,0,0,0,0,0h-59.32
			c-5.44-0.01-9.85,4.39-9.86,9.83v26.55c-3.93,1.37-7.78,2.95-11.55,4.73L140.9,24.35c-3.82-3.84-10.03-3.88-13.89-0.07l-0.07,0.07
			L85.04,65.9c-3.85,3.84-3.86,10.07-0.03,13.92c0.01,0.01,0.02,0.02,0.03,0.03l0,0l18.81,18.75c-0.49,1.05-0.98,2.06-1.43,3.11
			c-1.2,2.74-2.33,5.55-3.35,8.4h-26.6c-5.43-0.01-9.85,4.39-9.86,9.82V179c0.01,5.43,4.42,9.83,9.86,9.82h26.59
			c1.39,3.92,2.99,7.76,4.78,11.52l-18.81,18.75c-3.84,3.84-3.84,10.07,0,13.91l16.96,16.91c-37.2-1.77-62.63-13.5-69.85-32.21
			c-6.36-16.5,1.43-38.44,21.48-61.32V140c-29.57,29.55-40.93,58.54-32.09,81.72s37.62,37.5,80.57,39.45H114
			c62.15,53.04,155.66,45.81,208.86-16.15c18.7-21.77,30.64-48.52,34.36-76.97l0,0c3.08-2.74,6.02-5.48,8.88-8.25
			C396.75,129.95,408.6,100.44,399.53,76.89z M106.14,226.03l16.93-16.84c3.12-3.12,3.78-7.93,1.61-11.78
			c-3.78-6.64-6.76-13.7-8.87-21.04c-1.22-4.24-5.1-7.17-9.52-7.16H82.37v-39.37h23.92c4.42,0,8.3-2.92,9.52-7.16
			c2.05-7.42,4.98-14.57,8.73-21.3l0,0c2.14-3.77,1.56-8.49-1.43-11.63l0,0l-16.81-16.76l27.65-27.86L150.83,62
			c3.13,3.12,7.96,3.78,11.81,1.61c6.7-3.7,13.81-6.61,21.18-8.7c4.24-1.19,7.18-5.04,7.19-9.45V21.57h39.49v23.89
			c-0.01,0.75,0.08,1.49,0.26,2.21c0.81,3.5,3.46,6.28,6.92,7.24l4.81,1.5c5.67,1.9,11.14,4.33,16.36,7.24
			c3.87,2.14,8.68,1.47,11.81-1.65l12.11-12.08l4.78-4.8l4.06,4.05l10.57,10.54l-41.08,40.84c-27.18-27.65-71.63-28.03-99.27-0.85
			c-27.49,27.02-28.05,71.15-1.26,98.86c0.37,0.37,0.74,0.74,1.11,1.11l-41.08,40.95L106.14,226.03z M302.6,241.03
			c-42.7,42.44-108.89,50.19-160.24,18.75c34.64-4.14,68.62-12.68,101.11-25.39c32.59-12.29,63.48-28.67,91.93-48.75
			c-6.14,20.91-17.47,39.93-32.95,55.27L302.6,241.03z M339.09,168.88L339.09,168.88c-30.33,23.19-63.93,41.74-99.71,55.05
			c-32.6,12.78-66.75,21.18-101.56,24.98l50.67-50.48l-12.34-12.3l0,0c-20.41-18.99-21.57-50.93-2.59-71.34s50.93-21.57,71.34-2.59
			c0.26,0.24,0.52,0.48,0.77,0.73c0.67,0.63,1.31,1.28,1.95,1.94l0,0l12.34,12.26l55.25-55.09
			C335.81,99.82,344.42,134.71,339.09,168.88L339.09,168.88z"/>
	</g>
	<g id="Group_32" transform="translate(462.056 62.986)">
		<path id="Path_92" class="st0" d="M71.53,104.47L18.65,36.49v130.19c0,13.31-21.18,13.58-21.18,0V11.07
			c0-13.58,15.62-15.74,22.57-5.69l104.38,134.01V9.2c0-13.32,21.18-13.58,21.18,0V164.8c0,13.58-15.62,15.74-22.57,5.69
			L71.53,104.47z"/>
		<g id="Group_31" transform="translate(186.875 1.154)">
			<path id="Path_93" class="st0" d="M77.96,17.94c38.63,0.1,69.87,31.49,69.77,70.12c-0.1,38.63-31.49,69.87-70.12,69.77
				c-38.55-0.1-69.75-31.37-69.77-69.92v-0.03C7.94,49.22,39.3,17.94,77.96,17.94 M77.96-0.94c-49.21,0.01-89.1,39.91-89.09,89.12
				c0.01,49.21,39.91,89.1,89.12,89.09s89.1-39.91,89.09-89.12c-0.01-49.2-39.89-89.08-89.09-89.09H77.96z"/>
			<path id="Path_94" class="st0" d="M77.98,119.65c-3.8,0-6.88-3.07-6.89-6.87V60.85c0.27-3.81,3.59-6.68,7.4-6.41
				c3.43,0.25,6.16,2.98,6.41,6.41v52C84.84,116.62,81.76,119.65,77.98,119.65z"/>
		</g>
		<path id="Path_95" class="st0" d="M510.41,166.98c-12.67,6.03-26.46,9.36-40.48,9.77c-46.13,0-87.69-37.69-87.69-90.94
			c-0.33-42.75,30.84-79.23,73.12-85.57c31.56-4.3,59.1,3.52,80.4,25.83c8.1,9.15-6.54,20.19-14.01,12.12
			c-18.36-19.38-39.66-22.35-63.41-19.54c-33.2,5.11-56.69,28.53-56.69,67.52c0,40.91,31.59,72.12,68.81,72.12
			c10.9-0.19,21.62-2.87,31.33-7.82c8.55-4.39,16.09-10.52,22.12-18.01c6.21-9.16,22.68,0.81,15.65,10.75
			C531.97,153.43,521.95,161.6,510.41,166.98z"/>
	</g>
</g>
</svg>
